M48
;Layer_Color=9474304
;FILE_FORMAT=4:4
METRIC,LZ
;TYPE=PLATED
T1F00S00C0.3000
T2F00S00C0.6000
T3F00S00C0.8000
T4F00S00C0.9000
T5F00S00C1.0000
T6F00S00C1.1000
;TYPE=NON_PLATED
T7F00S00C4.2000
%
T01
X0115975Y0000875
X0114Y00075
X01128Y001065
X01109Y0010675
X0112225Y001515
X0119225Y0012425
X0121975Y00151
X01311Y0014625
X014145Y0013975
Y00079
X0133625Y0004825
Y0003875
X012885Y0003625
X0127925Y0005975
X0125975Y0000875
X0135975
X0096Y00009
X009495Y00052
Y00102
Y00152
X005505Y0015925
X0055025Y000785
X0054675Y0001325
X0049Y0001
X004976Y00100064
X003976
X003Y001
X0029Y0001
X0039
X0019
X00099467Y00011912
X001Y0009
X0008375Y001415
X002Y001
Y002
Y003
Y004
Y005
X00098624Y005
X001Y004
Y003
X00099Y002
X0001025Y00255
Y00355
Y00455
X000095Y0054375
X003Y005
X003976Y00500064
Y00400064
X003Y004
Y003
X003976Y00300064
Y00200064
X003Y002
X004976Y00200064
Y00300064
Y00400064
Y00500064
X00602885Y0050106
Y0040106
Y0030106
Y0020106
X00702885
X008Y002
X009
Y003
X008
X00702885Y0030106
Y0040106
X008Y004
Y005
X00702885Y0050106
X009Y005
Y004
X0100577Y0039612
Y0049612
Y0029612
Y0019612
X0110577
X0115375Y0018475
X01161Y001775
X0116525Y0018875
X011555Y0024225
X011815Y0024725
X012125Y0030275
Y0040275
X0118175Y00395
X011555Y0039525
X0110577Y0039612
Y0049612
X011555Y0049525
X0118125Y0049425
X012125Y0050275
X013125
Y0040275
Y0030275
X014125
Y0040275
Y0050275
Y0020275
X013125
X0110577Y0029612
X0149Y00256
X0148975Y00164
X0149Y00356
Y00456
X01491Y00551
Y00651
Y00751
X014125Y0070275
X013125
X013095Y0079325
X014125Y0080275
X014Y009
X014125Y0060275
X013125
X012125
X011815Y005955
X0115575Y00596
X0110577Y0059612
X0109575Y00682
X0109625Y0071125
X011195Y00707
X0113975Y007065
X0114725Y007145
X0115475Y00731
X0116975Y0070875
X0117125Y00696
X0113175Y0069775
X0111275Y0073575
X0105925Y00723
X0105025Y007085
X0106275Y0066725
X012125Y0070275
X012015Y00757
X0101125Y007595
X010185Y0073175
X0101225Y0072175
X0100902Y0069262
X0100577Y0059612
X009Y006
X008
X00702885Y0060106
X0070325Y006965
X0068375Y0073175
X0070325Y007965
X0080325
Y006965
X008695Y0073225
X0090902Y0069262
Y0079262
X0077125Y009295
X0055325Y008965
X004925Y0094175
X00506135Y0079756
X0044225Y00772
X0047825Y0073175
X00506135Y0069756
X00606135
X00602885Y0060106
X004976Y00600064
X003976
X003Y006
X0030085Y00696564
X0040085
X0038625Y00822
X002895Y0084925
Y009315
X00267Y0076575
X00606135Y0079756
X001985Y008
X001
Y007
Y006
X002
X0020325Y006965
X0021275Y009255
X00064Y009315
X000095Y0084375
Y0074375
Y0064375
X0009Y0099
X0017825Y009905
X0029Y0099
X0039
X0049
X0059
X0069
X0079
X0089
X0099
X0109
X0119
T02
X00478852Y0086865
X00491552
X00504252
X00516952
X00529652
X0052965Y0088135
X0051695
X0050425
X0049155
X0047885
T03
X013014Y0083315
X013268
X013522
X013776
Y0090935
X013522
X013268
X013014
X0033125Y00894
X0025505
Y007924
X0028045
X0030585
X0033125
X001675Y0089575
Y0091575
T04
X01052Y00048
X01077
X01102
X01127
X01152
X01177
X01202
X0135625Y0004115
Y0006655
Y0009195
Y0011735
T05
X0104815Y007921
X0107355
X0109895
X0112435
X0114975
X0117515
X0120055
X0122595
Y009445
X0120055
X0117515
X0114975
X0112435
X0109895
X0107355
X0104815
X0102275
X0099735
X0097195
X0094655
Y007921
X0097195
X0099735
X0102275
X0045Y0092025
X00385
Y0096525
X0045
T06
X0066965Y008641
Y008895
X0069505
X0072045
X0074585
X0077125
X0079665
X0082205
X0084745
Y008641
X0082205
X0079665
X0077125
X0074585
X0072045
X0069505
X0064425
X0061885
Y008895
X0064425
T07
X014625Y00115
X000375Y0021
X014625Y0079
X000375Y00885
M30
