G04*
G04 #@! TF.GenerationSoftware,Altium Limited,Altium Designer,23.3.1 (30)*
G04*
G04 Layer_Color=8388736*
%FSLAX44Y44*%
%MOMM*%
G71*
G04*
G04 #@! TF.SameCoordinates,414C3010-CE14-4ABF-8636-14FEAC747614*
G04*
G04*
G04 #@! TF.FilePolarity,Negative*
G04*
G01*
G75*
G04:AMPARAMS|DCode=23|XSize=0.7mm|YSize=0.7mm|CornerRadius=0.149mm|HoleSize=0mm|Usage=FLASHONLY|Rotation=270.000|XOffset=0mm|YOffset=0mm|HoleType=Round|Shape=RoundedRectangle|*
%AMROUNDEDRECTD23*
21,1,0.7000,0.4020,0,0,270.0*
21,1,0.4020,0.7000,0,0,270.0*
1,1,0.2980,-0.2010,-0.2010*
1,1,0.2980,-0.2010,0.2010*
1,1,0.2980,0.2010,0.2010*
1,1,0.2980,0.2010,-0.2010*
%
%ADD23ROUNDEDRECTD23*%
G04:AMPARAMS|DCode=24|XSize=0.5mm|YSize=0.7mm|CornerRadius=0.15mm|HoleSize=0mm|Usage=FLASHONLY|Rotation=270.000|XOffset=0mm|YOffset=0mm|HoleType=Round|Shape=RoundedRectangle|*
%AMROUNDEDRECTD24*
21,1,0.5000,0.4000,0,0,270.0*
21,1,0.2000,0.7000,0,0,270.0*
1,1,0.3000,-0.2000,-0.1000*
1,1,0.3000,-0.2000,0.1000*
1,1,0.3000,0.2000,0.1000*
1,1,0.3000,0.2000,-0.1000*
%
%ADD24ROUNDEDRECTD24*%
G04:AMPARAMS|DCode=25|XSize=0.9mm|YSize=0.8mm|CornerRadius=0.1235mm|HoleSize=0mm|Usage=FLASHONLY|Rotation=180.000|XOffset=0mm|YOffset=0mm|HoleType=Round|Shape=RoundedRectangle|*
%AMROUNDEDRECTD25*
21,1,0.9000,0.5530,0,0,180.0*
21,1,0.6530,0.8000,0,0,180.0*
1,1,0.2470,-0.3265,0.2765*
1,1,0.2470,0.3265,0.2765*
1,1,0.2470,0.3265,-0.2765*
1,1,0.2470,-0.3265,-0.2765*
%
%ADD25ROUNDEDRECTD25*%
G04:AMPARAMS|DCode=26|XSize=0.9mm|YSize=0.8mm|CornerRadius=0.1235mm|HoleSize=0mm|Usage=FLASHONLY|Rotation=270.000|XOffset=0mm|YOffset=0mm|HoleType=Round|Shape=RoundedRectangle|*
%AMROUNDEDRECTD26*
21,1,0.9000,0.5530,0,0,270.0*
21,1,0.6530,0.8000,0,0,270.0*
1,1,0.2470,-0.2765,-0.3265*
1,1,0.2470,-0.2765,0.3265*
1,1,0.2470,0.2765,0.3265*
1,1,0.2470,0.2765,-0.3265*
%
%ADD26ROUNDEDRECTD26*%
G04:AMPARAMS|DCode=27|XSize=0.65mm|YSize=1.15mm|CornerRadius=0.149mm|HoleSize=0mm|Usage=FLASHONLY|Rotation=270.000|XOffset=0mm|YOffset=0mm|HoleType=Round|Shape=RoundedRectangle|*
%AMROUNDEDRECTD27*
21,1,0.6500,0.8520,0,0,270.0*
21,1,0.3520,1.1500,0,0,270.0*
1,1,0.2980,-0.4260,-0.1760*
1,1,0.2980,-0.4260,0.1760*
1,1,0.2980,0.4260,0.1760*
1,1,0.2980,0.4260,-0.1760*
%
%ADD27ROUNDEDRECTD27*%
G04:AMPARAMS|DCode=28|XSize=1.95mm|YSize=3.5mm|CornerRadius=0.1518mm|HoleSize=0mm|Usage=FLASHONLY|Rotation=270.000|XOffset=0mm|YOffset=0mm|HoleType=Round|Shape=RoundedRectangle|*
%AMROUNDEDRECTD28*
21,1,1.9500,3.1965,0,0,270.0*
21,1,1.6465,3.5000,0,0,270.0*
1,1,0.3035,-1.5983,-0.8233*
1,1,0.3035,-1.5983,0.8233*
1,1,0.3035,1.5983,0.8233*
1,1,0.3035,1.5983,-0.8233*
%
%ADD28ROUNDEDRECTD28*%
G04:AMPARAMS|DCode=29|XSize=0.7mm|YSize=1.05mm|CornerRadius=0.149mm|HoleSize=0mm|Usage=FLASHONLY|Rotation=270.000|XOffset=0mm|YOffset=0mm|HoleType=Round|Shape=RoundedRectangle|*
%AMROUNDEDRECTD29*
21,1,0.7000,0.7520,0,0,270.0*
21,1,0.4020,1.0500,0,0,270.0*
1,1,0.2980,-0.3760,-0.2010*
1,1,0.2980,-0.3760,0.2010*
1,1,0.2980,0.3760,0.2010*
1,1,0.2980,0.3760,-0.2010*
%
%ADD29ROUNDEDRECTD29*%
%ADD30R,1.8999X2.4800*%
%ADD31R,1.8999X2.4800*%
%ADD32R,1.9000X1.9000*%
%ADD33C,1.9000*%
%ADD34C,1.1000*%
%ADD35R,1.1000X1.1000*%
%ADD36R,1.9000X1.9000*%
%ADD37O,2.6000X1.6000*%
%ADD38R,2.6000X1.6000*%
%ADD39C,2.1000*%
%ADD40O,1.7000X2.6000*%
%ADD41R,1.7000X2.6000*%
%ADD42C,7.2000*%
D23*
X1086920Y683750D02*
D03*
Y696750D02*
D03*
X1068920D02*
D03*
Y683750D02*
D03*
D24*
X1086920Y690250D02*
D03*
X1068920D02*
D03*
D25*
X1192250Y133750D02*
D03*
Y148750D02*
D03*
X1132000Y151500D02*
D03*
Y136500D02*
D03*
X1153250Y112500D02*
D03*
Y97500D02*
D03*
X1252750Y35750D02*
D03*
Y50750D02*
D03*
X1266000Y35750D02*
D03*
Y50750D02*
D03*
X1106500Y675250D02*
D03*
Y690250D02*
D03*
X1050250Y683750D02*
D03*
Y698750D02*
D03*
X1118500Y106750D02*
D03*
Y121750D02*
D03*
X1279250Y35750D02*
D03*
Y50750D02*
D03*
X1099750Y723000D02*
D03*
Y738000D02*
D03*
X1084500D02*
D03*
Y723000D02*
D03*
X1069250D02*
D03*
Y738000D02*
D03*
D26*
X1178000Y165500D02*
D03*
X1163000D02*
D03*
X181500Y852500D02*
D03*
X166500D02*
D03*
D27*
X1325500Y29250D02*
D03*
Y38750D02*
D03*
Y48250D02*
D03*
X1299000D02*
D03*
Y38750D02*
D03*
Y29250D02*
D03*
D28*
X1089250Y128000D02*
D03*
X1035750D02*
D03*
D29*
X1174256Y129650D02*
D03*
Y139150D02*
D03*
Y148650D02*
D03*
X1146756D02*
D03*
Y139150D02*
D03*
Y129650D02*
D03*
D30*
X1149750Y780200D02*
D03*
X1225949D02*
D03*
X1200549D02*
D03*
X1175150D02*
D03*
X1124350D02*
D03*
X1098950D02*
D03*
X997350Y956400D02*
D03*
X1073550D02*
D03*
X1022750D02*
D03*
X1048150D02*
D03*
X946551D02*
D03*
X971951D02*
D03*
D31*
X1073550Y780200D02*
D03*
X997350D02*
D03*
X1048150D02*
D03*
X1022750D02*
D03*
X971950D02*
D03*
X946550D02*
D03*
X1149750Y956400D02*
D03*
X1175150D02*
D03*
X1200550D02*
D03*
X1225950D02*
D03*
X1098950D02*
D03*
X1124350D02*
D03*
D32*
X1301400Y833150D02*
D03*
X1356250Y117350D02*
D03*
D33*
X1326800Y833150D02*
D03*
X1352200D02*
D03*
X1377600D02*
D03*
X1301400Y909350D02*
D03*
X1326800D02*
D03*
X1352200D02*
D03*
X1377600D02*
D03*
X946550Y792100D02*
D03*
X1124350D02*
D03*
X1073550D02*
D03*
X1048150D02*
D03*
X1022750D02*
D03*
X997350D02*
D03*
X971950D02*
D03*
X1098950D02*
D03*
X1149750D02*
D03*
X1175150D02*
D03*
X1200550D02*
D03*
X1225950D02*
D03*
X1048150Y944500D02*
D03*
X1098950D02*
D03*
X1124350D02*
D03*
X1149750D02*
D03*
X1175150D02*
D03*
X1200550D02*
D03*
X1073550D02*
D03*
X1022750D02*
D03*
X997350D02*
D03*
X971950D02*
D03*
X946550D02*
D03*
X1225950D02*
D03*
X255050Y894000D02*
D03*
X305850Y792400D02*
D03*
X280450D02*
D03*
X255050D02*
D03*
X331250Y894000D02*
D03*
X618850Y864100D02*
D03*
X644250D02*
D03*
X669650D02*
D03*
X618850Y889500D02*
D03*
X644250D02*
D03*
X669650D02*
D03*
X847450Y864100D02*
D03*
X822050Y889500D02*
D03*
Y864100D02*
D03*
X796650Y889500D02*
D03*
Y864100D02*
D03*
X771250Y889500D02*
D03*
Y864100D02*
D03*
X745850Y889500D02*
D03*
X720450D02*
D03*
X745850Y864100D02*
D03*
X720450D02*
D03*
X695050Y889500D02*
D03*
Y864100D02*
D03*
X1356250Y91950D02*
D03*
Y66550D02*
D03*
Y41150D02*
D03*
D34*
X504252Y868650D02*
D03*
X504250Y881350D02*
D03*
X491552Y868650D02*
D03*
X491550Y881350D02*
D03*
X478850D02*
D03*
X516952Y868650D02*
D03*
X516950Y881350D02*
D03*
X529652Y868650D02*
D03*
X529650Y881350D02*
D03*
D35*
X478852Y868650D02*
D03*
D36*
X331250Y792400D02*
D03*
X847450Y889500D02*
D03*
D37*
X167500Y895750D02*
D03*
D38*
Y915750D02*
D03*
D39*
X385000Y920250D02*
D03*
Y965250D02*
D03*
X450000D02*
D03*
Y920250D02*
D03*
D40*
X1177000Y48000D02*
D03*
X1152000D02*
D03*
X1127000D02*
D03*
X1102000D02*
D03*
X1077000D02*
D03*
X1052000D02*
D03*
D41*
X1202000D02*
D03*
D42*
X1462500Y115000D02*
D03*
Y790000D02*
D03*
X37500Y885000D02*
D03*
Y210000D02*
D03*
M02*
